<svg version="1.1" id="Layer_1" xmlns="http://www.w3.org/2000/svg" xmlns:xlink="http://www.w3.org/1999/xlink" x="0px" y="0px"
	 width="100%" viewBox="0 0 96 96" enable-background="new 0 0 96 96" xml:space="preserve">
<path fill="#73C3FF" opacity="1.000000" stroke="none" 
	d="
M96.782959,3.787829 
	C97.000000,17.020895 97.000000,30.041788 97.000000,43.531342 
	C96.262527,44.598671 95.427650,44.918663 94.026352,44.799019 
	C90.379364,43.183205 90.587807,40.186520 90.541451,37.385445 
	C90.393089,28.420351 90.650940,19.448772 90.376480,10.105286 
	C88.524948,10.883815 88.619232,12.310142 88.382950,13.435351 
	C87.049629,19.784941 85.875565,26.167820 84.509094,32.510315 
	C82.719101,40.818562 77.836586,45.087112 69.151657,45.374062 
	C58.178974,45.736607 47.193737,45.469776 36.213955,45.486984 
	C28.228559,45.499500 20.242964,45.533802 11.823483,45.425102 
	C3.973251,44.135578 1.873078,41.869541 2.039318,34.616936 
	C2.264873,24.776554 5.056602,15.350455 7.082343,5.808276 
	C7.474973,3.958808 8.809232,2.637171 10.683390,1.294618 
	C38.354229,1.000000 65.708458,1.000000 93.531342,1.000000 
	C94.856621,1.857249 95.845856,2.582381 96.782959,3.787829 
z"/>
<path fill="#474E57" opacity="1.000000" stroke="none" 
	d="
M48.258614,96.622742 
	C46.611111,97.000000 45.222221,97.000000 43.416664,97.000000 
	C42.395538,96.280342 41.938267,95.486572 41.699768,94.099716 
	C41.238750,84.033455 41.584023,74.412170 41.452362,64.794022 
	C41.373039,58.999134 40.352787,58.236233 34.722176,58.516724 
	C30.948488,58.704712 30.552740,60.965721 30.541838,63.872993 
	C30.505753,73.494400 30.620070,83.116112 30.429352,93.189659 
	C30.290030,94.571457 30.090694,95.466164 29.283318,96.630157 
	C20.958956,97.000000 12.907645,96.762520 4.881598,97.109459 
	C1.357330,97.261795 0.327938,96.237129 1.000000,92.499962 
	C3.643930,88.952339 7.130614,89.573959 10.988438,89.874695 
	C22.300373,91.213135 22.412773,91.107552 22.426918,80.238403 
	C22.436028,73.239861 22.287603,66.238564 22.492235,59.243561 
	C22.669071,53.198730 24.285374,51.579414 30.397070,51.482849 
	C40.393257,51.324917 50.393665,51.329426 60.390015,51.482162 
	C66.177322,51.570591 67.389885,52.807442 67.515373,58.642948 
	C67.701668,67.305527 67.483345,75.973038 67.610046,84.636780 
	C67.685326,89.783417 68.250175,90.295082 73.437462,90.400620 
	C77.435188,90.481956 81.439392,90.317680 85.433556,90.440575 
	C89.108902,90.553658 90.457054,88.878006 90.437065,85.336525 
	C90.388153,76.672256 90.357826,68.006363 90.460495,59.342175 
	C90.489555,56.890526 90.186356,54.257641 92.948013,52.267986 
	C94.369972,51.879551 95.311790,51.976460 96.604828,52.716160 
	C97.000000,66.756271 96.926369,80.513306 97.070786,94.268066 
	C97.095535,96.625313 96.600960,97.106247 94.260750,97.070084 
	C83.821739,96.908737 73.378822,97.000000 62.468658,97.000000 
	C61.401680,96.285049 60.943840,95.498886 60.702686,94.123657 
	C60.257370,84.056870 60.594742,74.431793 60.461071,64.809784 
	C60.383446,59.222263 55.242676,56.327122 50.263309,58.985756 
	C48.621502,59.862370 48.587761,61.392155 48.594387,62.841648 
	C48.639874,72.793968 48.162739,82.751778 48.912811,93.144318 
	C49.045815,94.514374 48.936779,95.406181 48.258614,96.622742 
z"/>
<path fill="#000000" opacity="1.000000" stroke="none" 
	d="
M11.258451,90.609627 
	C7.871556,91.284042 4.675951,90.307686 1.410479,92.043427 
	C1.000000,63.302402 1.127310,34.603645 0.865501,5.908432 
	C0.825301,1.502366 2.009347,0.283631 6.051472,0.965919 
	C7.341760,1.183712 8.699821,1.000000 10.513435,1.000000 
	C5.731269,11.690418 4.885413,23.429573 3.033992,34.917992 
	C2.157330,40.357841 5.140575,43.076168 10.571316,44.051273 
	C12.224593,45.358894 12.524347,46.993675 12.542303,48.667992 
	C12.677304,61.256260 12.677838,73.844955 12.542814,86.433289 
	C12.528541,87.764076 12.301124,89.074432 11.258451,90.609627 
z"/>
<path fill="#000000" opacity="1.000000" stroke="none" 
	d="
M42.596184,93.641922 
	C43.050720,94.704163 43.113205,95.474564 43.087845,96.622482 
	C38.643101,97.000000 34.286201,97.000000 29.464651,97.000000 
	C28.993677,96.255798 28.987356,95.511589 28.990515,94.390366 
	C33.287998,91.535248 37.731003,92.142830 42.596184,93.641922 
z"/>
<path fill="#000000" opacity="1.000000" stroke="none" 
	d="
M48.464653,97.000000 
	C47.997757,96.275208 47.995518,95.550423 48.016209,94.458427 
	C52.309433,91.459846 56.747055,92.134315 61.605232,93.723381 
	C62.053741,94.767990 62.112850,95.513489 62.085979,96.629486 
	C57.643101,97.000000 53.286201,97.000000 48.464653,97.000000 
z"/>
<path fill="#000000" opacity="1.000000" stroke="none" 
	d="
M97.000000,52.550018 
	C96.262650,52.955162 95.525307,52.910324 94.416550,52.931149 
	C92.044960,50.395882 92.220726,47.623615 93.734520,44.425018 
	C94.851959,43.852192 95.632446,43.626869 96.706467,43.700775 
	C97.000000,46.700012 97.000000,49.400028 97.000000,52.550018 
z"/>
<path fill="#000000" opacity="1.000000" stroke="none" 
	d="
M97.000000,3.500000 
	C94.841621,4.660721 94.515976,2.563242 93.710892,1.311195 
	C95.268898,1.263320 97.612228,-0.085014 97.000000,3.500000 
z"/>
<path fill="#FBFCFC" opacity="1.000000" stroke="none" 
	d="
M93.728027,43.856590 
	C94.071884,46.752258 94.072311,49.427006 94.058937,52.549286 
	C90.848526,53.392403 91.900688,55.926174 91.883858,57.671265 
	C91.787445,67.666611 91.714523,77.665710 91.906509,87.658287 
	C91.968842,90.902237 91.081070,92.039246 87.732277,91.895111 
	C81.745598,91.637444 75.735382,91.685242 69.744041,91.881393 
	C66.825348,91.976944 66.074661,90.901375 66.110916,88.136093 
	C66.244148,77.974968 66.031876,67.808441 66.232292,57.649525 
	C66.304840,53.972187 65.159027,52.680672 61.405094,52.751110 
	C50.579609,52.954250 39.745441,52.953434 28.919853,52.753258 
	C25.085899,52.682362 24.051603,54.198334 24.108774,57.765873 
	C24.268921,67.759575 24.020910,77.760719 24.243746,87.752014 
	C24.319216,91.135956 23.199135,92.183281 19.991304,91.861031 
	C17.188459,91.579468 14.352133,91.631203 11.218739,91.249710 
	C10.934762,75.646797 10.962646,60.329868 10.969919,44.553539 
	C29.729961,44.014786 48.512814,43.737103 67.290283,43.944965 
	C75.875084,44.039997 82.388695,40.616486 83.401070,30.924082 
	C84.103767,24.196455 85.827721,17.559889 87.369293,10.946485 
	C87.753960,9.296255 87.351112,6.179922 90.252052,6.592975 
	C92.591011,6.926008 91.873817,9.516900 91.883469,11.238273 
	C91.934677,20.381550 91.892456,29.525314 91.922066,38.668777 
	C91.927803,40.441174 91.456635,42.406788 93.728027,43.856590 
z"/>
<path fill="#F7FCFF" opacity="1.000000" stroke="none" 
	d="
M47.388557,23.153172 
	C49.019451,21.526426 50.632645,20.797318 52.586655,20.867546 
	C54.454063,20.934662 56.655521,20.920341 56.803505,23.319202 
	C56.943188,25.583548 55.275288,25.756540 53.309570,25.371109 
	C51.619175,25.039665 50.768887,26.705564 49.645107,27.628798 
	C44.485950,31.867281 42.006557,31.715689 37.307728,26.839758 
	C32.849636,22.213638 32.836346,22.202152 28.800861,26.872559 
	C27.705553,28.140194 26.628063,29.917715 24.790663,28.455784 
	C23.053852,27.073889 24.242813,25.466272 25.259975,24.091518 
	C26.150181,22.888355 26.978401,21.630877 27.953527,20.500502 
	C31.675295,16.186186 33.634769,16.155767 37.762447,20.309757 
	C38.699909,21.253195 39.679245,22.196997 40.414333,23.291700 
	C42.640018,26.606234 44.830235,26.211172 47.388557,23.153172 
z"/>
<path fill="#EFF8FF" opacity="1.000000" stroke="none" 
	d="
M63.532669,29.729458 
	C61.417305,30.139969 60.150181,29.504406 60.442471,27.561087 
	C60.633671,26.289860 61.871120,25.638510 63.117893,26.129761 
	C64.882820,26.825176 65.235519,28.066681 63.532669,29.729458 
z"/>
<path fill="#F5F5F5" opacity="1.000000" stroke="none" 
	d="
M61.938755,93.554932 
	C57.650196,94.023323 53.305763,94.024147 48.500237,94.058098 
	C46.664772,82.510040 47.756519,70.886902 47.460930,59.287125 
	C47.434162,58.236679 47.773525,57.219830 49.072876,57.202881 
	C52.734867,57.155121 56.405834,57.032185 60.057701,57.228439 
	C62.675186,57.369106 61.815979,59.653233 61.826088,61.120804 
	C61.899448,71.775948 61.875828,82.431755 61.938755,93.554932 
z"/>
<path fill="#FEFEFE" opacity="1.000000" stroke="none" 
	d="
M42.991264,93.469269 
	C38.635151,93.956940 34.282066,93.980125 29.464489,94.008331 
	C28.947901,82.865059 28.955229,71.715935 28.799124,60.569103 
	C28.763128,57.998852 29.561069,57.207493 32.187969,57.115231 
	C42.998688,56.735538 42.995342,56.636909 42.995190,67.539291 
	C42.995068,76.027794 42.994602,84.516289 42.991264,93.469269 
z"/>
</svg>